<svg width="119" height="56" viewBox="0 0 119 56" fill="none" xmlns="http://www.w3.org/2000/svg">
<path d="M42.16 41V15.8H46.552V36.608H57.046V41H42.16ZM67.4472 41.468C65.7912 41.468 64.2792 41.042 62.9112 40.19C61.5552 39.338 60.4692 38.198 59.6532 36.77C58.8492 35.33 58.4472 33.74 58.4472 32C58.4472 30.68 58.6812 29.45 59.1492 28.31C59.6172 27.158 60.2592 26.15 61.0752 25.286C61.9032 24.41 62.8632 23.726 63.9552 23.234C65.0472 22.742 66.2112 22.496 67.4472 22.496C69.1032 22.496 70.6092 22.922 71.9652 23.774C73.3332 24.626 74.4192 25.772 75.2232 27.212C76.0392 28.652 76.4472 30.248 76.4472 32C76.4472 33.308 76.2132 34.532 75.7452 35.672C75.2772 36.812 74.6292 37.82 73.8012 38.696C72.9852 39.56 72.0312 40.238 70.9392 40.73C69.8592 41.222 68.6952 41.468 67.4472 41.468ZM67.4472 37.076C68.3232 37.076 69.1092 36.842 69.8052 36.374C70.5012 35.906 71.0472 35.288 71.4432 34.52C71.8512 33.752 72.0552 32.912 72.0552 32C72.0552 31.064 71.8452 30.212 71.4252 29.444C71.0172 28.664 70.4592 28.046 69.7512 27.59C69.0552 27.122 68.2872 26.888 67.4472 26.888C66.5832 26.888 65.8032 27.122 65.1072 27.59C64.4112 28.058 63.8592 28.682 63.4512 29.462C63.0432 30.242 62.8392 31.088 62.8392 32C62.8392 32.948 63.0492 33.806 63.4692 34.574C63.8892 35.342 64.4472 35.954 65.1432 36.41C65.8512 36.854 66.6192 37.076 67.4472 37.076ZM92.6762 23H97.0682V41.342C97.0682 42.638 96.8042 43.814 96.2762 44.87C95.7482 45.938 95.0282 46.85 94.1162 47.606C93.2042 48.374 92.1602 48.962 90.9842 49.37C89.8082 49.79 88.5722 50 87.2762 50C86.0162 50 84.8042 49.742 83.6402 49.226C82.4762 48.71 81.4442 48.002 80.5442 47.102C79.6562 46.214 78.9782 45.2 78.5102 44.06L82.5242 42.242C82.7642 42.902 83.1242 43.478 83.6042 43.97C84.0962 44.474 84.6602 44.864 85.2962 45.14C85.9322 45.428 86.5922 45.572 87.2762 45.572C87.9722 45.572 88.6382 45.476 89.2742 45.284C89.9222 45.092 90.5042 44.81 91.0202 44.438C91.5362 44.078 91.9382 43.634 92.2262 43.106C92.5262 42.59 92.6762 42.002 92.6762 41.342V38.804C92.1122 39.596 91.4042 40.238 90.5522 40.73C89.7002 41.222 88.7162 41.468 87.6002 41.468C86.3042 41.468 85.0922 41.222 83.9642 40.73C82.8362 40.238 81.8402 39.56 80.9762 38.696C80.1242 37.82 79.4522 36.812 78.9602 35.672C78.4802 34.532 78.2402 33.308 78.2402 32C78.2402 30.692 78.4802 29.468 78.9602 28.328C79.4522 27.188 80.1242 26.186 80.9762 25.322C81.8402 24.446 82.8362 23.762 83.9642 23.27C85.0922 22.778 86.3042 22.532 87.6002 22.532C88.7162 22.532 89.7002 22.778 90.5522 23.27C91.4042 23.75 92.1122 24.386 92.6762 25.178V23ZM87.6542 37.238C88.5782 37.238 89.3942 37.004 90.1022 36.536C90.8222 36.056 91.3862 35.42 91.7942 34.628C92.2022 33.824 92.4062 32.948 92.4062 32C92.4062 31.04 92.1962 30.164 91.7762 29.372C91.3682 28.58 90.8042 27.944 90.0842 27.464C89.3762 26.984 88.5662 26.744 87.6542 26.744C86.7542 26.744 85.9322 26.984 85.1882 27.464C84.4442 27.932 83.8502 28.562 83.4062 29.354C82.9622 30.146 82.7402 31.028 82.7402 32C82.7402 32.972 82.9622 33.854 83.4062 34.646C83.8502 35.438 84.4442 36.068 85.1882 36.536C85.9322 37.004 86.7542 37.238 87.6542 37.238ZM108.896 41.468C107.24 41.468 105.728 41.042 104.36 40.19C103.004 39.338 101.918 38.198 101.102 36.77C100.298 35.33 99.8964 33.74 99.8964 32C99.8964 30.68 100.13 29.45 100.598 28.31C101.066 27.158 101.708 26.15 102.524 25.286C103.352 24.41 104.312 23.726 105.404 23.234C106.496 22.742 107.66 22.496 108.896 22.496C110.552 22.496 112.058 22.922 113.414 23.774C114.782 24.626 115.868 25.772 116.672 27.212C117.488 28.652 117.896 30.248 117.896 32C117.896 33.308 117.662 34.532 117.194 35.672C116.726 36.812 116.078 37.82 115.25 38.696C114.434 39.56 113.48 40.238 112.388 40.73C111.308 41.222 110.144 41.468 108.896 41.468ZM108.896 37.076C109.772 37.076 110.558 36.842 111.254 36.374C111.95 35.906 112.496 35.288 112.892 34.52C113.3 33.752 113.504 32.912 113.504 32C113.504 31.064 113.294 30.212 112.874 29.444C112.466 28.664 111.908 28.046 111.2 27.59C110.504 27.122 109.736 26.888 108.896 26.888C108.032 26.888 107.252 27.122 106.556 27.59C105.86 28.058 105.308 28.682 104.9 29.462C104.492 30.242 104.288 31.088 104.288 32C104.288 32.948 104.498 33.806 104.918 34.574C105.338 35.342 105.896 35.954 106.592 36.41C107.3 36.854 108.068 37.076 108.896 37.076Z" fill="#5142FC"/>
<path d="M18.75 4C10.2255 9.0344 11.25 23.2187 11.25 23.2187C11.25 23.2187 7.5 21.9375 7.5 16.1719C3.02601 18.831 0 23.9421 0 29.625C0 38.1164 6.71572 45 15 45C23.2843 45 30 38.1164 30 29.625C29.9999 17.1328 18.75 14.5703 18.75 4V4ZM16.3176 39.7023C13.3034 40.4725 10.2505 38.5924 9.49887 35.5027C8.74736 32.4131 10.5816 29.2838 13.596 28.5135C20.8732 26.6538 21.7852 22.4592 21.7852 22.4592C21.7852 22.4592 25.4141 37.3775 16.3176 39.7023Z" fill="#5142FC"/>
</svg>
